<svg xmlns="http://www.w3.org/2000/svg" viewBox="0 0 512 512">
  <!-- Red background -->
  <rect width="512" height="512" fill="#DE2910"/>

  <!-- Large star -->
  <polygon fill="#FFDE00"
    points="90,80 105,125 150,125 114,152 128,198 90,170 52,198 66,152 30,125 75,125"/>

  <!-- Small stars -->
  <polygon fill="#FFDE00"
    points="180,55 187,75 208,75 191,88 197,109 180,96 163,109 169,88 152,75 173,75"/>

  <polygon fill="#FFDE00"
    points="220,110 227,130 248,130 231,143 237,164 220,151 203,164 209,143 192,130 213,130"/>

  <polygon fill="#FFDE00"
    points="220,170 227,190 248,190 231,203 237,224 220,211 203,224 209,203 192,190 213,190"/>

  <polygon fill="#FFDE00"
    points="180,225 187,245 208,245 191,258 197,279 180,266 163,279 169,258 152,245 173,245"/>
</svg>